<svg width="17" height="17" viewBox="0 0 17 17" fill="none" xmlns="http://www.w3.org/2000/svg">
<path d="M8.16504 16.3961C6.99772 16.3961 5.91992 16.1992 4.93164 15.8053C3.95052 15.4043 3.09473 14.8421 2.36426 14.1188C1.64095 13.3955 1.07878 12.5433 0.677734 11.5621C0.283854 10.5739 0.0869141 9.49605 0.0869141 8.32874C0.0869141 7.21155 0.287435 6.16597 0.688477 5.19202C1.09668 4.2109 1.66602 3.35152 2.39648 2.61389C3.13411 1.87626 3.99349 1.29976 4.97461 0.884399C5.95573 0.461873 7.01921 0.25061 8.16504 0.25061C9.28223 0.25061 10.3278 0.451131 11.3018 0.852173C12.2829 1.24605 13.1423 1.80823 13.8799 2.5387C14.6175 3.262 15.194 4.11422 15.6094 5.09534C16.0319 6.07646 16.2432 7.15426 16.2432 8.32874C16.2432 9.49605 16.0426 10.5739 15.6416 11.5621C15.2477 12.5433 14.6855 13.3955 13.9551 14.1188C13.2318 14.8421 12.3796 15.4043 11.3984 15.8053C10.4173 16.1992 9.33952 16.3961 8.16504 16.3961ZM8.49805 13.3668C7.0013 13.3668 5.88053 12.9049 5.13574 11.9811C4.39811 11.0573 4.0293 9.8398 4.0293 8.32874C4.0293 7.34762 4.20117 6.48108 4.54492 5.72913C4.89583 4.97001 5.41146 4.37561 6.0918 3.94592C6.77214 3.50907 7.60286 3.29065 8.58398 3.29065C9.03516 3.29065 9.49707 3.34794 9.96973 3.46252C10.4424 3.57711 10.8828 3.73824 11.291 3.94592L10.6465 5.42834C10.2884 5.24215 9.93392 5.09892 9.58301 4.99866C9.23926 4.8984 8.91341 4.84827 8.60547 4.84827C7.73893 4.84827 7.06576 5.15979 6.58594 5.78284C6.11328 6.39872 5.87695 7.24736 5.87695 8.32874C5.87695 9.45308 6.08464 10.316 6.5 10.9176C6.92253 11.5192 7.61719 11.8199 8.58398 11.8199C8.92057 11.8199 9.29655 11.7734 9.71191 11.6803C10.1344 11.58 10.5283 11.4583 10.8936 11.3151V12.8405C10.5426 12.9908 10.1846 13.1162 9.81934 13.2164C9.4541 13.3167 9.01367 13.3668 8.49805 13.3668ZM8.16504 14.9889C9.06738 14.9889 9.91243 14.8278 10.7002 14.5055C11.488 14.1761 12.1826 13.7142 12.7842 13.1198C13.3857 12.5253 13.8548 11.8235 14.1914 11.0143C14.528 10.1979 14.6963 9.30269 14.6963 8.32874C14.6963 7.41207 14.5316 6.54911 14.2021 5.73987C13.8727 4.93062 13.4108 4.21806 12.8164 3.60217C12.2292 2.98629 11.5381 2.50647 10.7432 2.16272C9.9554 1.81181 9.09603 1.63635 8.16504 1.63635C7.22689 1.63635 6.35677 1.80107 5.55469 2.13049C4.75977 2.45992 4.0651 2.92542 3.4707 3.52698C2.8763 4.12138 2.41439 4.82678 2.08496 5.64319C1.75553 6.45959 1.59082 7.35478 1.59082 8.32874C1.59082 9.30269 1.75195 10.1979 2.07422 11.0143C2.39648 11.8235 2.85124 12.5253 3.43848 13.1198C4.02572 13.7142 4.72038 14.1761 5.52246 14.5055C6.32454 14.8278 7.2054 14.9889 8.16504 14.9889Z" fill="#127FE5"/>
</svg>
